# Blender 4.5.3 LTS
# www.blender.org
mtllib podium_v4.mtl
o Cube.001
v -0.250000 0.050000 0.175000
v -0.250000 1.050000 0.175000
v -0.250000 0.050000 -0.175000
v -0.250000 1.050000 -0.175000
v -0.230000 0.050000 0.175000
v -0.230562 1.049244 0.175624
v -0.230000 0.050000 -0.175000
v -0.230000 1.050000 -0.175000
v -0.250000 1.050000 0.175000
v -0.250000 1.050000 -0.175000
v -0.230562 1.049244 0.175624
v -0.230000 1.050000 -0.175000
v -0.250000 1.050000 0.175000
v -0.250000 1.050000 -0.175000
v -0.230000 1.050000 -0.175000
v -0.230562 1.049244 0.175624
v -0.250000 1.050000 0.175000
v -0.250000 1.050000 -0.175000
v -0.230000 1.050000 -0.175000
v -0.230562 1.049244 0.175624
v -0.250000 1.050000 0.175000
v -0.250000 1.050000 -0.175000
v -0.230000 1.050000 -0.175000
v -0.230562 1.049244 0.175624
v -0.250000 1.050000 0.175000
v -0.250000 1.050000 -0.175000
v -0.230000 1.050000 -0.175000
v -0.230562 1.049244 0.175624
v -0.250000 1.019617 0.175000
v -0.250000 1.019617 -0.175000
v -0.230000 1.050000 -0.175000
v -0.230562 1.049244 0.175624
v -0.229137 1.123670 0.175705
v -0.229785 1.061236 -0.174988
v -0.226171 1.249963 -0.174781
v -0.226733 1.249207 0.175843
v -0.248705 1.087271 0.175074
v -0.229250 1.117774 0.175699
v -0.249787 1.030757 -0.174988
v -0.248600 1.092737 0.175080
v -0.300000 0.000000 0.225000
v -0.300000 0.050000 0.225000
v -0.300000 0.000000 -0.225000
v -0.300000 0.050000 -0.225000
v 0.300000 0.000000 0.225000
v 0.300000 0.050000 0.225000
v 0.300000 0.000000 -0.225000
v 0.300000 0.050000 -0.225000
v 0.230000 0.050000 0.175000
v 0.230000 1.050000 0.175000
v 0.230000 0.050000 -0.175000
v 0.230000 1.050000 -0.175000
v 0.250000 0.050000 0.175000
v 0.250000 1.050000 0.175000
v 0.250000 0.050000 -0.175000
v 0.250000 1.050000 -0.175000
v 0.230000 1.060127 -0.175000
v 0.250000 1.059953 -0.175000
v 0.250000 1.120937 0.175000
v 0.230000 1.121746 0.175000
v -0.230000 0.050000 0.326645
v -0.230000 1.050000 0.301726
v -0.230000 0.050000 0.155000
v -0.230000 1.050000 0.155000
v 0.230000 0.050000 0.326645
v 0.230000 1.050000 0.301726
v 0.230000 0.050000 0.155000
v 0.230000 1.050000 0.155000
v -0.230000 1.050000 0.175000
v -0.230000 1.050000 0.155000
v 0.230000 1.050000 0.155000
v 0.230000 1.050000 0.175000
v -0.230000 1.095000 0.175000
v -0.230000 1.095000 0.155000
v 0.230000 1.095000 0.155000
v 0.230000 1.095000 0.175000
v -0.230000 0.790000 0.165000
v -0.230000 0.810000 0.165000
v -0.230000 0.790000 -0.165000
v -0.230000 0.810000 -0.165000
v 0.230000 0.790000 0.165000
v 0.230000 0.810000 0.165000
v 0.230000 0.790000 -0.165000
v 0.230000 0.810000 -0.165000
v -0.300000 1.104299 0.244186
v -0.300000 1.133843 0.238977
v -0.300000 1.026157 -0.198977
v -0.300000 1.055701 -0.204186
v 0.300000 1.104299 0.244186
v 0.300000 1.133843 0.238977
v 0.300000 1.026157 -0.198977
v 0.300000 1.055701 -0.204186
v -0.300000 1.133407 0.409270
v -0.300000 1.162952 0.404060
v 0.300000 1.162952 0.404060
v 0.300000 1.133407 0.409270
v -0.230000 0.749005 0.175000
v -0.230000 0.749005 0.155000
v 0.230000 0.749005 0.155000
v 0.230000 0.749005 0.175000
v -0.230000 0.244723 0.155000
v 0.230000 0.244723 0.155000
v 0.230000 0.244723 0.175000
v -0.230000 0.244723 0.175000
v 0.230000 1.050000 0.301726
v -0.230000 1.050000 0.301726
v -0.230000 1.050000 0.155000
v 0.230000 1.050000 0.155000
v -0.230000 0.749005 0.175000
v -0.230000 1.050000 0.301726
v 0.230000 1.050000 0.301726
v 0.230000 0.749005 0.175000
v -0.230000 0.749005 0.175000
v -0.230000 1.050000 0.301726
v 0.230000 1.050000 0.301726
v 0.230000 0.749005 0.175000
v 0.230000 1.133862 0.368322
v -0.230000 1.133862 0.368322
v -0.230000 1.112856 0.155000
v 0.230000 1.112856 0.155000
v -0.300000 0.000000 0.400175
v -0.300000 0.050000 0.400175
v 0.300000 0.050000 0.400175
v 0.300000 0.000000 0.400175
v -0.248730 0.749005 0.175000
v -0.248730 1.050000 0.301726
v -0.248730 1.050000 0.155000
v -0.248730 0.749005 0.155000
v -0.248730 1.050000 0.301726
v -0.248730 1.050000 0.155000
v -0.248730 1.133862 0.368322
v -0.248730 1.112856 0.155000
v 0.248730 1.050000 0.155000
v 0.248730 1.050000 0.301726
v 0.248730 0.749005 0.155000
v 0.248730 0.749005 0.175000
v 0.248730 1.050000 0.301726
v 0.248730 1.050000 0.155000
v 0.248730 1.133862 0.368322
v 0.248730 1.112856 0.155000
v -0.247981 0.050000 0.155000
v -0.247981 0.050000 0.326645
v -0.247981 0.244723 0.155000
v -0.247981 0.244723 0.175000
v 0.230000 0.244723 0.155000
v 0.230000 0.050000 0.155000
v 0.230000 0.050000 0.326645
v 0.230000 0.244723 0.175000
v 0.247981 0.244723 0.155000
v 0.247981 0.050000 0.155000
v 0.247981 0.050000 0.326645
v 0.247981 0.244723 0.175000
vn -1.0000 -0.0000 -0.0000
vn -0.0000 -0.0000 -1.0000
vn 1.0000 0.0003 0.0008
vn -0.0158 -0.0003 0.9999
vn -0.0000 -1.0000 -0.0000
vn -0.0000 1.0000 -0.0000
vn -0.9998 0.0191 -0.0000
vn 1.0000 -0.0000 -0.0000
vn 0.0321 -0.0000 -0.9995
vn -0.0000 -0.0000 1.0000
vn -0.0313 -0.0005 0.9995
vn -0.0000 -0.3880 0.9216
vn -0.0000 0.1736 0.9848
vn -0.0000 -0.1736 -0.9848
vn -0.0000 0.9848 -0.1736
vn -0.0000 -0.9848 0.1736
vn -0.0000 0.6144 0.7890
vn -0.0000 0.6219 -0.7831
vn -0.0000 -0.9952 0.0980
vt 0.375000 0.000000
vt 0.625000 0.000000
vt 0.625000 0.250000
vt 0.375000 0.250000
vt 0.625000 0.500000
vt 0.375000 0.500000
vt 0.625000 0.750000
vt 0.375000 0.750000
vt 0.625000 1.000000
vt 0.375000 1.000000
vt 0.125000 0.500000
vt 0.125000 0.750000
vt 0.875000 0.500000
vt 0.875000 0.750000
vt 0.549751 0.250000
vt 0.549751 0.500000
vt 0.549751 0.750000
vt 0.000000 0.000000
vt 0.423681 0.750000
vt 0.549751 1.000000
vt 0.423681 1.000000
vt 0.423681 0.500000
vt 0.423681 0.250000
vt 0.423681 0.000000
vt 0.549751 0.000000
s 0
f 1/1/1 2/2/1 4/3/1 3/4/1
f 3/4/2 4/3/2 8/5/2 7/6/2
f 7/6/3 8/5/3 6/7/3 5/8/3
f 5/8/4 6/7/4 2/9/4 1/10/4
f 3/11/5 7/6/5 5/8/5 1/12/5
f 6/7/6 8/5/6 15/5/6 16/7/6
f 8/5/6 6/7/6 11/7/6 12/5/6
f 4/3/6 8/5/6 12/5/6 10/3/6
f 2/2/6 4/3/6 10/3/6 9/2/6
f 16/7/6 15/5/6 19/5/6 20/7/6
f 4/3/6 2/2/6 13/2/6 14/3/6
f 2/9/6 6/7/6 16/7/6 13/9/6
f 8/5/6 4/3/6 14/3/6 15/5/6
f 20/7/6 19/5/6 23/5/6 24/7/6
f 14/3/6 13/2/6 17/2/6 18/3/6
f 13/9/6 16/7/6 20/7/6 17/9/6
f 15/5/6 14/3/6 18/3/6 19/5/6
f 21/9/6 24/7/6 28/7/6 25/9/6
f 18/3/6 17/2/6 21/2/6 22/3/6
f 17/9/6 20/7/6 24/7/6 21/9/6
f 19/5/6 18/3/6 22/3/6 23/5/6
f 28/7/6 27/5/6 31/5/6 32/7/6
f 23/5/6 22/3/6 26/3/6 27/5/6
f 24/7/6 23/5/6 27/5/6 28/7/6
f 22/3/6 21/2/6 25/2/6 26/3/6
f 30/3/7 29/2/7 37/2/7 40/2/7 39/3/7
f 26/3/8 25/2/8 29/2/8 30/3/8
f 25/9/9 28/7/9 32/7/9 29/9/9
f 27/5/10 26/3/10 30/3/10 31/5/10
f 29/9/11 32/7/11 38/7/11 37/9/11
f 41/1/1 42/2/1 44/3/1 43/4/1
f 43/4/2 44/3/2 48/5/2 47/6/2
f 47/6/8 48/5/8 46/7/8 45/8/8
f 42/2/1 41/1/1 121/1/1 122/2/1
f 43/11/5 47/6/5 45/8/5 41/12/5
f 48/5/6 44/13/6 42/14/6 46/7/6
f 49/1/1 50/2/1 52/3/1 51/4/1
f 51/4/2 52/3/2 56/5/2 55/6/2
f 55/6/8 56/5/8 54/7/8 53/8/8
f 53/8/10 54/7/10 50/9/10 49/10/10
f 51/11/5 55/6/5 53/8/5 49/12/5
f 52/3/1 50/2/1 60/2/1 57/3/1
f 50/9/10 54/7/10 59/7/10 60/9/10
f 54/7/8 56/5/8 58/5/8 59/7/8
f 64/3/2 98/15/2 128/15/2 127/3/2
f 98/15/2 64/3/2 68/5/2 99/16/2
f 66/7/12 100/17/12 136/17/12 134/7/12
f 100/17/6 66/7/6 111/7/6 112/17/6
f 63/11/5 67/6/5 65/8/5 61/12/5
f 68/5/6 64/3/6 70/3/6 71/5/6
f 72/7/8 71/5/8 75/5/8 76/7/8
f 66/7/6 68/5/6 71/5/6 72/7/6
f 64/3/6 62/2/6 69/2/6 70/3/6
f 62/18/6 70/18/6 107/18/6 106/18/6
f 75/5/6 74/13/6 73/14/6 76/7/6
f 70/3/1 69/2/1 73/2/1 74/3/1
f 96/8/13 95/7/13 94/9/13 93/10/13
f 71/5/2 70/3/2 74/3/2 75/5/2
f 77/1/1 78/2/1 80/3/1 79/4/1
f 79/4/2 80/3/2 84/5/2 83/6/2
f 83/6/8 84/5/8 82/7/8 81/8/8
f 81/8/10 82/7/10 78/9/10 77/10/10
f 79/11/5 83/6/5 81/8/5 77/12/5
f 84/5/6 80/13/6 78/14/6 82/7/6
f 85/1/1 86/2/1 88/3/1 87/4/1
f 87/4/14 88/3/14 92/5/14 91/6/14
f 91/6/8 92/5/8 90/7/8 89/8/8
f 90/7/15 86/14/15 94/14/15 95/7/15
f 87/11/16 91/6/16 89/8/16 85/12/16
f 92/5/15 88/13/15 86/14/15 90/7/15
f 89/8/8 90/7/8 95/7/8 96/8/8
f 86/2/1 85/1/1 93/1/1 94/2/1
f 85/12/16 89/8/16 96/8/16 93/12/16
f 103/19/10 100/17/10 97/20/10 104/21/10
f 102/22/8 99/16/8 100/17/8 103/19/8
f 101/23/2 98/15/2 99/16/2 102/22/2
f 104/24/1 97/25/1 98/15/1 101/23/1
f 104/24/6 101/23/6 143/23/6 144/24/6
f 63/4/2 101/23/2 102/22/2 67/6/2
f 103/19/6 65/8/6 147/8/6 148/19/6
f 65/8/17 103/19/17 104/21/17 61/10/17
f 118/9/18 106/9/18 129/9/18 131/9/18
f 71/18/6 66/18/6 105/18/6 108/18/6
f 70/3/6 71/5/6 108/5/6 107/3/6
f 66/7/6 62/9/6 106/9/6 105/7/6
f 111/7/6 110/9/6 114/9/6 115/7/6
f 62/2/6 97/25/6 109/25/6 110/2/6
f 97/20/6 100/17/6 112/17/6 109/20/6
f 66/7/6 62/9/6 110/9/6 111/7/6
f 116/17/12 115/7/12 114/9/12 113/20/12
f 112/17/6 111/7/6 115/7/6 116/17/6
f 110/2/6 109/25/6 113/25/6 114/2/6
f 109/20/6 112/17/6 116/17/6 113/20/6
f 117/7/19 118/9/19 119/3/19 120/5/19
f 107/3/10 108/5/10 120/5/10 119/3/10
f 105/7/18 117/7/18 139/7/18 137/7/18
f 105/7/18 106/9/18 118/9/18 117/7/18
f 124/8/10 123/7/10 122/9/10 121/10/10
f 41/12/5 45/8/5 124/8/5 121/12/5
f 46/7/6 42/14/6 122/14/6 123/7/6
f 45/8/8 46/7/8 123/7/8 124/8/8
f 125/25/1 126/2/1 127/3/1 128/15/1
f 129/18/8 130/18/8 132/18/8 131/18/8
f 119/3/19 118/9/19 131/9/19 132/3/19
f 106/18/6 107/18/6 130/18/6 129/18/6
f 97/25/12 62/2/12 126/2/12 125/25/12
f 107/3/10 119/3/10 132/3/10 130/3/10
f 62/2/6 64/3/6 127/3/6 126/2/6
f 98/15/5 97/25/5 125/25/5 128/15/5
f 135/16/8 133/5/8 134/7/8 136/17/8
f 138/18/1 137/18/1 139/18/1 140/18/1
f 120/5/10 108/5/10 138/5/10 140/5/10
f 68/5/6 66/7/6 134/7/6 133/5/6
f 99/16/2 68/5/2 133/5/2 135/16/2
f 117/7/19 120/5/19 140/5/19 139/7/19
f 108/18/6 105/18/6 137/18/6 138/18/6
f 100/17/5 99/16/5 135/16/5 136/17/5
f 142/1/1 144/24/1 143/23/1 141/4/1
f 101/23/2 63/4/2 141/4/2 143/23/2
f 61/10/17 104/21/17 144/21/17 142/10/17
f 63/11/5 61/12/5 142/12/5 141/11/5
f 148/19/17 147/8/17 151/8/17 152/19/17
f 102/22/6 103/19/6 148/19/6 145/22/6
f 65/8/6 67/6/6 146/6/6 147/8/6
f 67/6/6 102/22/6 145/22/6 146/6/6
f 150/6/8 149/22/8 152/19/8 151/8/8
f 146/6/2 145/22/2 149/22/2 150/6/2
f 145/22/6 148/19/6 152/19/6 149/22/6
f 147/8/5 146/6/5 150/6/5 151/8/5
l 38 33
l 34 31
o 
v 0.000000 0.000000 0.000000
