# Blender 4.5.4 LTS
# www.blender.org
mtllib projectorrod.mtl
o Cylinder
v 0.000000 1.000001 -20.403393
v 0.000000 0.999999 20.403393
v 0.866025 0.500001 -20.403393
v 0.866025 0.499999 20.403393
v 0.866025 -0.499999 -20.403393
v 0.866025 -0.500001 20.403393
v 0.000000 -0.999999 -20.403393
v 0.000000 -1.000001 20.403393
v -1.087282 -0.791496 -20.403393
v -1.085507 -0.796848 20.403393
v -1.089993 0.790682 -20.403393
v -1.094652 0.799464 20.403393
v 0.433013 0.750001 -20.403393
v 0.433013 0.749999 20.403393
v 0.433013 -0.749999 -20.403393
v 0.433013 -0.750001 20.403393
v 0.649519 -0.625001 20.403393
v 0.649519 -0.624999 -20.403393
v 0.433013 0.750001 -20.403393
v 0.866025 0.500001 -20.403393
v 0.866025 -0.499999 -20.403393
v 0.433013 -0.749999 -20.403393
v 0.000000 -0.999999 -20.403393
v -1.087282 -0.791496 -20.403393
v -1.089993 0.790682 -20.403393
v 0.000000 1.000001 -20.403393
v 0.649519 -0.624999 -20.403393
vn 0.5000 0.8660 -0.0000
vn 1.0000 -0.0000 -0.0000
vn 0.5000 -0.8660 -0.0000
vn -0.1861 -0.9825 -0.0001
vn -0.0000 -0.0000 1.0000
vn -1.0000 -0.0037 -0.0000
vn -0.1844 0.9829 -0.0001
vn -0.0000 -0.0000 -1.0000
vt 0.916667 0.500000
vt 0.916667 1.000000
vt 0.833333 1.000000
vt 0.833333 0.500000
vt 0.666667 1.000000
vt 0.666667 0.500000
vt 0.583333 0.500000
vt 0.583333 1.000000
vt 0.500000 1.000000
vt 0.500000 0.500000
vt 0.333333 1.000000
vt 0.333333 0.500000
vt 0.457846 0.370000
vt 0.353923 0.430000
vt 0.250000 0.490000
vt 0.042154 0.370000
vt 0.042154 0.130000
vt 0.250000 0.010000
vt 0.353923 0.070000
vt 0.405885 0.100000
vt 0.457846 0.130000
vt 0.166667 1.000000
vt 0.166667 0.500000
vt -0.000000 1.000000
vt -0.000000 0.500000
vt 1.000000 0.500000
vt 1.000000 1.000000
vt 0.625000 0.500000
vt 0.625000 1.000000
vt 0.750000 0.490000
vt 0.853923 0.430000
vt 0.957846 0.370000
vt 0.957846 0.130000
vt 0.905885 0.100000
vt 0.853923 0.070000
vt 0.750000 0.010000
vt 0.542154 0.130000
vt 0.542154 0.370000
s 0
usemtl Material
f 13/1/1 14/2/1 4/3/1 3/4/1
f 3/4/2 4/3/2 6/5/2 5/6/2
f 15/7/3 16/8/3 8/9/3 7/10/3
f 7/10/4 8/9/4 10/11/4 9/12/4
f 4/13/5 14/14/5 2/15/5 12/16/5 10/17/5 8/18/5 16/19/5 17/20/5 6/21/5
f 9/12/6 10/11/6 12/22/6 11/23/6
f 11/23/7 12/22/7 2/24/7 1/25/7
f 9/12/5 11/23/5 25/23/5 24/12/5
f 1/26/1 2/27/1 14/2/1 13/1/1
f 18/28/3 17/29/3 16/8/3 15/7/3
f 5/6/3 6/5/3 17/29/3 18/28/3
f 26/30/8 19/31/8 20/32/8 21/33/8 27/34/8 22/35/8 23/36/8 24/37/8 25/38/8
f 7/10/5 9/12/5 24/12/5 23/10/5
f 13/1/5 3/4/5 20/4/5 19/1/5
f 15/7/5 7/10/5 23/10/5 22/7/5
f 18/28/5 15/7/5 22/7/5 27/28/5
f 3/4/5 5/6/5 21/6/5 20/4/5
f 1/26/5 13/1/5 19/1/5 26/26/5
f 5/6/5 18/28/5 27/28/5 21/6/5
f 11/23/5 1/25/5 26/25/5 25/23/5
