# Blender 4.5.3 LTS
# www.blender.org
mtllib projector(1).mtl
o Cube
v 1.647481 -0.324792 0.661781
v 1.647481 1.019030 0.661781
v 1.647481 -0.324792 3.962476
v 1.647481 1.019030 3.962476
v -0.352519 -0.324792 0.661781
v -0.352519 1.019030 0.661781
v -0.352519 -0.324792 3.962476
v -0.352519 1.019030 3.962476
vn -0.0000 -1.0000 -0.0000
vn -0.0000 -0.0000 1.0000
vn -1.0000 -0.0000 -0.0000
vn -0.0000 1.0000 -0.0000
vn 1.0000 -0.0000 -0.0000
vn -0.0000 -0.0000 -1.0000
vt 0.625000 0.500000
vt 0.875000 0.500000
vt 0.875000 0.750000
vt 0.625000 0.750000
vt 0.375000 0.750000
vt 0.625000 1.000000
vt 0.375000 1.000000
vt 0.375000 0.000000
vt 0.625000 0.000000
vt 0.625000 0.250000
vt 0.375000 0.250000
vt 0.125000 0.500000
vt 0.375000 0.500000
vt 0.125000 0.750000
s 0
usemtl Material
f 1/1/1 3/4/1 7/3/1 5/2/1
f 4/5/2 8/7/2 7/6/2 3/4/2
f 8/8/3 6/11/3 5/10/3 7/9/3
f 6/12/4 8/14/4 4/5/4 2/13/4
f 2/13/5 4/5/5 3/4/5 1/1/5
f 6/11/6 2/13/6 1/1/6 5/10/6
o Cylinder
v -0.443066 0.337340 3.029135
v 0.490352 0.337340 2.661174
v -0.443066 0.311581 3.031672
v 0.490352 0.239795 2.670782
v -0.443066 0.286811 3.039186
v 0.490352 0.145999 2.699234
v -0.443066 0.263983 3.051388
v 0.490352 0.059555 2.745440
v -0.443066 0.243974 3.067808
v 0.490352 -0.016213 2.807621
v -0.443066 0.227554 3.087817
v 0.490352 -0.078394 2.883389
v -0.443066 0.215352 3.110645
v 0.490352 -0.124599 2.969833
v -0.443066 0.207838 3.135415
v 0.490352 -0.153052 3.063629
v -0.443066 0.205301 3.161174
v 0.490352 -0.162660 3.161174
v -0.443066 0.207838 3.186934
v 0.490352 -0.153052 3.258719
v -0.443066 0.215352 3.211704
v 0.490352 -0.124599 3.352516
v -0.443066 0.227554 3.234532
v 0.490352 -0.078394 3.438959
v -0.443066 0.243974 3.254540
v 0.490352 -0.016213 3.514728
v -0.443066 0.263983 3.270961
v 0.490352 0.059555 3.576909
v -0.443066 0.286811 3.283163
v 0.490352 0.145999 3.623114
v -0.443066 0.311581 3.290677
v 0.490352 0.239795 3.651567
v -0.443066 0.337340 3.293214
v 0.490352 0.337340 3.661174
v -0.443066 0.363100 3.290677
v 0.490352 0.434886 3.651567
v -0.443066 0.387870 3.283163
v 0.490352 0.528682 3.623114
v -0.443066 0.410698 3.270961
v 0.490352 0.615126 3.576909
v -0.443066 0.430707 3.254540
v 0.490352 0.690894 3.514728
v -0.443066 0.447127 3.234532
v 0.490352 0.753075 3.438959
v -0.443066 0.459329 3.211704
v 0.490352 0.799280 3.352516
v -0.443066 0.466843 3.186934
v 0.490352 0.827733 3.258719
v -0.443066 0.469380 3.161174
v 0.490352 0.837340 3.161174
v -0.443066 0.466843 3.135415
v 0.490352 0.827733 3.063629
v -0.443066 0.459329 3.110645
v 0.490352 0.799280 2.969833
v -0.443066 0.447127 3.087817
v 0.490352 0.753075 2.883389
v -0.443066 0.430707 3.067808
v 0.490352 0.690894 2.807621
v -0.443066 0.410698 3.051388
v 0.490352 0.615126 2.745440
v -0.443066 0.387870 3.039186
v 0.490352 0.528682 2.699234
v -0.443066 0.363100 3.031672
v 0.490352 0.434886 2.670782
v -0.688226 0.337340 2.661174
v -0.688226 0.239795 2.670782
v -0.688226 0.145999 2.699234
v -0.688226 0.059555 2.745440
v -0.688226 -0.016213 2.807621
v -0.688226 -0.078394 2.883389
v -0.688226 -0.124599 2.969833
v -0.688226 -0.153052 3.063629
v -0.688226 -0.162660 3.161174
v -0.688226 -0.153052 3.258719
v -0.688226 -0.124599 3.352516
v -0.688226 -0.078394 3.438959
v -0.688226 -0.016213 3.514728
v -0.688226 0.059555 3.576909
v -0.688226 0.145999 3.623114
v -0.688226 0.239795 3.651567
v -0.688226 0.337340 3.661174
v -0.688226 0.434886 3.651567
v -0.688226 0.528682 3.623114
v -0.688226 0.615126 3.576909
v -0.688226 0.690894 3.514728
v -0.688226 0.753075 3.438959
v -0.688226 0.799280 3.352516
v -0.688226 0.827733 3.258719
v -0.688226 0.837340 3.161174
v -0.688226 0.827733 3.063629
v -0.688226 0.799280 2.969833
v -0.688226 0.753075 2.883389
v -0.688226 0.690894 2.807621
v -0.688226 0.615126 2.745440
v -0.688226 0.528682 2.699234
v -0.688226 0.434886 2.670782
v 0.461465 0.337340 2.661174
v 0.461465 0.239795 2.670782
v 0.461465 0.145999 2.699234
v 0.461465 0.059555 2.745440
v 0.461465 -0.016213 2.807621
v 0.461465 -0.078394 2.883389
v 0.461465 -0.124599 2.969833
v 0.461465 -0.153052 3.063629
v 0.461465 -0.162660 3.161174
v 0.461465 -0.153052 3.258719
v 0.461465 -0.124599 3.352516
v 0.461465 -0.078394 3.438959
v 0.461465 -0.016213 3.514728
v 0.461465 0.059555 3.576909
v 0.461465 0.145999 3.623114
v 0.461465 0.239795 3.651567
v 0.461465 0.337340 3.661174
v 0.461465 0.434886 3.651567
v 0.461465 0.528682 3.623114
v 0.461465 0.615126 3.576909
v 0.461465 0.690894 3.514728
v 0.461465 0.753075 3.438959
v 0.461465 0.799280 3.352516
v 0.461465 0.827733 3.258719
v 0.461465 0.837340 3.161174
v 0.461465 0.827733 3.063629
v 0.461465 0.799280 2.969833
v 0.461465 0.753075 2.883389
v 0.461465 0.690894 2.807621
v 0.461465 0.615126 2.745440
v 0.461465 0.528682 2.699234
v 0.461465 0.434886 2.670782
vn -0.0000 -0.0980 -0.9952
vn -0.0000 -0.2903 -0.9569
vn -0.0000 -0.4714 -0.8819
vn -0.0000 -0.6344 -0.7730
vn -0.0000 -0.7730 -0.6344
vn -0.0000 -0.8819 -0.4714
vn -0.0000 -0.9569 -0.2903
vn -0.0000 -0.9952 -0.0980
vn -0.0000 -0.9952 0.0980
vn -0.0000 -0.9569 0.2903
vn -0.0000 -0.8819 0.4714
vn -0.0000 -0.7730 0.6344
vn -0.0000 -0.6344 0.7730
vn -0.0000 -0.4714 0.8819
vn -0.0000 -0.2903 0.9569
vn -0.0000 -0.0980 0.9952
vn -0.0000 0.0980 0.9952
vn -0.0000 0.2903 0.9569
vn -0.0000 0.4714 0.8819
vn -0.0000 0.6344 0.7730
vn -0.0000 0.7730 0.6344
vn -0.0000 0.8819 0.4714
vn -0.0000 0.9569 0.2903
vn -0.0000 0.9952 0.0980
vn -0.0000 0.9952 -0.0980
vn -0.0000 0.9569 -0.2903
vn -0.0000 0.8819 -0.4714
vn -0.0000 0.7730 -0.6344
vn -0.0000 0.6344 -0.7730
vn -0.0000 0.4714 -0.8819
vn 1.0000 -0.0000 -0.0000
vn -0.0000 0.2903 -0.9569
vn -0.0000 0.0980 -0.9952
vn -1.0000 -0.0000 -0.0000
vn -0.8310 -0.0545 0.5536
vn -0.8310 -0.1615 0.5324
vn -0.8310 -0.2622 0.4906
vn -0.8310 -0.3529 0.4300
vn -0.8310 -0.4300 0.3529
vn -0.8310 -0.4906 0.2622
vn -0.8310 -0.5324 0.1615
vn -0.8310 -0.5536 0.0545
vn -0.8310 -0.5536 -0.0545
vn -0.8310 -0.5324 -0.1615
vn -0.8310 -0.4906 -0.2622
vn -0.8310 -0.4300 -0.3529
vn -0.8310 -0.3529 -0.4300
vn -0.8310 -0.2622 -0.4906
vn -0.8310 -0.1615 -0.5324
vn -0.8310 -0.0545 -0.5536
vn -0.8310 0.0545 -0.5536
vn -0.8310 0.1615 -0.5324
vn -0.8310 0.2622 -0.4906
vn -0.8310 0.3529 -0.4300
vn -0.8310 0.4300 -0.3529
vn -0.8310 0.4906 -0.2622
vn -0.8310 0.5324 -0.1615
vn -0.8310 0.5536 -0.0545
vn -0.8310 0.5536 0.0545
vn -0.8310 0.5324 0.1615
vn -0.8310 0.4906 0.2622
vn -0.8310 0.4300 0.3529
vn -0.8310 0.3529 0.4300
vn -0.8310 0.2622 0.4906
vn -0.8310 0.1615 0.5324
vn -0.8310 0.0545 0.5536
vt 1.000000 0.987964
vt 1.000000 1.000000
vt 0.968750 1.000000
vt 0.968750 0.987964
vt 0.937500 1.000000
vt 0.937500 0.987964
vt 0.906250 1.000000
vt 0.906250 0.987964
vt 0.875000 1.000000
vt 0.875000 0.987964
vt 0.843750 1.000000
vt 0.843750 0.987964
vt 0.812500 1.000000
vt 0.812500 0.987964
vt 0.781250 1.000000
vt 0.781250 0.987964
vt 0.750000 1.000000
vt 0.750000 0.987964
vt 0.718750 1.000000
vt 0.718750 0.987964
vt 0.687500 1.000000
vt 0.687500 0.987964
vt 0.656250 1.000000
vt 0.656250 0.987964
vt 0.625000 1.000000
vt 0.625000 0.987964
vt 0.593750 1.000000
vt 0.593750 0.987964
vt 0.562500 1.000000
vt 0.562500 0.987964
vt 0.531250 1.000000
vt 0.531250 0.987964
vt 0.500000 1.000000
vt 0.500000 0.987964
vt 0.468750 1.000000
vt 0.468750 0.987964
vt 0.437500 1.000000
vt 0.437500 0.987964
vt 0.406250 1.000000
vt 0.406250 0.987964
vt 0.375000 1.000000
vt 0.375000 0.987964
vt 0.343750 1.000000
vt 0.343750 0.987964
vt 0.312500 1.000000
vt 0.312500 0.987964
vt 0.281250 1.000000
vt 0.281250 0.987964
vt 0.250000 1.000000
vt 0.250000 0.987964
vt 0.218750 1.000000
vt 0.218750 0.987964
vt 0.187500 1.000000
vt 0.187500 0.987964
vt 0.156250 1.000000
vt 0.156250 0.987964
vt 0.125000 1.000000
vt 0.125000 0.987964
vt 0.093750 1.000000
vt 0.093750 0.987964
vt 0.062500 1.000000
vt 0.062500 0.987964
vt 0.296822 0.485388
vt 0.250000 0.490000
vt 0.203178 0.485388
vt 0.158156 0.471731
vt 0.116663 0.449553
vt 0.080294 0.419706
vt 0.050447 0.383337
vt 0.028269 0.341844
vt 0.014612 0.296822
vt 0.010000 0.250000
vt 0.014612 0.203178
vt 0.028269 0.158156
vt 0.050447 0.116663
vt 0.080294 0.080294
vt 0.116663 0.050447
vt 0.158156 0.028269
vt 0.203178 0.014612
vt 0.250000 0.010000
vt 0.296822 0.014612
vt 0.341844 0.028269
vt 0.383337 0.050447
vt 0.419706 0.080294
vt 0.449553 0.116663
vt 0.471731 0.158156
vt 0.485388 0.203178
vt 0.490000 0.250000
vt 0.485388 0.296822
vt 0.471731 0.341844
vt 0.449553 0.383337
vt 0.419706 0.419706
vt 0.383337 0.449553
vt 0.341844 0.471731
vt 0.031250 1.000000
vt 0.031250 0.987964
vt 0.000000 1.000000
vt 0.000000 0.987964
vt 0.750000 0.490000
vt 0.796822 0.485388
vt 0.841844 0.471731
vt 0.883337 0.449553
vt 0.919706 0.419706
vt 0.949553 0.383337
vt 0.971731 0.341844
vt 0.985388 0.296822
vt 0.990000 0.250000
vt 0.985388 0.203178
vt 0.971731 0.158156
vt 0.949553 0.116663
vt 0.919706 0.080294
vt 0.883337 0.050447
vt 0.841844 0.028269
vt 0.796822 0.014612
vt 0.750000 0.010000
vt 0.703178 0.014612
vt 0.658156 0.028269
vt 0.616663 0.050447
vt 0.580294 0.080294
vt 0.550447 0.116663
vt 0.528269 0.158156
vt 0.514612 0.203178
vt 0.510000 0.250000
vt 0.514612 0.296822
vt 0.528269 0.341844
vt 0.550447 0.383337
vt 0.580294 0.419706
vt 0.616663 0.449553
vt 0.658156 0.471731
vt 0.703178 0.485388
vt 0.031250 0.500000
vt 0.031250 0.508926
vt 0.000000 0.508926
vt 0.000000 0.500000
vt 0.062500 0.500000
vt 0.062500 0.508926
vt 0.093750 0.500000
vt 0.093750 0.508926
vt 0.125000 0.500000
vt 0.125000 0.508926
vt 0.156250 0.500000
vt 0.156250 0.508926
vt 0.187500 0.500000
vt 0.187500 0.508926
vt 0.218750 0.500000
vt 0.218750 0.508926
vt 0.250000 0.500000
vt 0.250000 0.508926
vt 0.281250 0.500000
vt 0.281250 0.508926
vt 0.312500 0.500000
vt 0.312500 0.508926
vt 0.343750 0.500000
vt 0.343750 0.508926
vt 0.375000 0.500000
vt 0.375000 0.508926
vt 0.406250 0.500000
vt 0.406250 0.508926
vt 0.437500 0.500000
vt 0.437500 0.508926
vt 0.468750 0.500000
vt 0.468750 0.508926
vt 0.500000 0.500000
vt 0.500000 0.508926
vt 0.531250 0.500000
vt 0.531250 0.508926
vt 0.562500 0.500000
vt 0.562500 0.508926
vt 0.593750 0.500000
vt 0.593750 0.508926
vt 0.625000 0.500000
vt 0.625000 0.508926
vt 0.656250 0.500000
vt 0.656250 0.508926
vt 0.687500 0.500000
vt 0.687500 0.508926
vt 0.718750 0.500000
vt 0.718750 0.508926
vt 0.750000 0.500000
vt 0.750000 0.508926
vt 0.781250 0.500000
vt 0.781250 0.508926
vt 0.812500 0.500000
vt 0.812500 0.508926
vt 0.843750 0.500000
vt 0.843750 0.508926
vt 0.875000 0.500000
vt 0.875000 0.508926
vt 0.906250 0.500000
vt 0.906250 0.508926
vt 0.937500 0.500000
vt 0.937500 0.508926
vt 0.968750 0.500000
vt 0.968750 0.508926
vt 1.000000 0.500000
vt 1.000000 0.508926
s 0
usemtl Material.001
f 105/15/7 10/16/7 12/17/7 106/18/7
f 106/18/8 12/17/8 14/19/8 107/20/8
f 107/20/9 14/19/9 16/21/9 108/22/9
f 108/22/10 16/21/10 18/23/10 109/24/10
f 109/24/11 18/23/11 20/25/11 110/26/11
f 110/26/12 20/25/12 22/27/12 111/28/12
f 111/28/13 22/27/13 24/29/13 112/30/13
f 112/30/14 24/29/14 26/31/14 113/32/14
f 113/32/15 26/31/15 28/33/15 114/34/15
f 114/34/16 28/33/16 30/35/16 115/36/16
f 115/36/17 30/35/17 32/37/17 116/38/17
f 116/38/18 32/37/18 34/39/18 117/40/18
f 117/40/19 34/39/19 36/41/19 118/42/19
f 118/42/20 36/41/20 38/43/20 119/44/20
f 119/44/21 38/43/21 40/45/21 120/46/21
f 120/46/22 40/45/22 42/47/22 121/48/22
f 121/48/23 42/47/23 44/49/23 122/50/23
f 122/50/24 44/49/24 46/51/24 123/52/24
f 123/52/25 46/51/25 48/53/25 124/54/25
f 124/54/26 48/53/26 50/55/26 125/56/26
f 125/56/27 50/55/27 52/57/27 126/58/27
f 126/58/28 52/57/28 54/59/28 127/60/28
f 127/60/29 54/59/29 56/61/29 128/62/29
f 128/62/30 56/61/30 58/63/30 129/64/30
f 129/64/31 58/63/31 60/65/31 130/66/31
f 130/66/32 60/65/32 62/67/32 131/68/32
f 131/68/33 62/67/33 64/69/33 132/70/33
f 132/70/34 64/69/34 66/71/34 133/72/34
f 133/72/35 66/71/35 68/73/35 134/74/35
f 134/74/36 68/73/36 70/75/36 135/76/36
f 12/77/37 10/78/37 72/79/37 70/80/37 68/81/37 66/82/37 64/83/37 62/84/37 60/85/37 58/86/37 56/87/37 54/88/37 52/89/37 50/90/37 48/91/37 46/92/37 44/93/37 42/94/37 40/95/37 38/96/37 36/97/37 34/98/37 32/99/37 30/100/37 28/101/37 26/102/37 24/103/37 22/104/37 20/105/37 18/106/37 16/107/37 14/108/37
f 135/76/38 70/75/38 72/109/38 136/110/38
f 136/110/39 72/109/39 10/111/39 105/112/39
f 9/113/40 11/114/40 13/115/40 15/116/40 17/117/40 19/118/40 21/119/40 23/120/40 25/121/40 27/122/40 29/123/40 31/124/40 33/125/40 35/126/40 37/127/40 39/128/40 41/129/40 43/130/40 45/131/40 47/132/40 49/133/40 51/134/40 53/135/40 55/136/40 57/137/40 59/138/40 61/139/40 63/140/40 65/141/40 67/142/40 69/143/40 71/144/40
f 71/145/41 104/146/41 73/147/41 9/148/41
f 69/149/42 103/150/42 104/146/42 71/145/42
f 67/151/43 102/152/43 103/150/43 69/149/43
f 65/153/44 101/154/44 102/152/44 67/151/44
f 63/155/45 100/156/45 101/154/45 65/153/45
f 61/157/46 99/158/46 100/156/46 63/155/46
f 59/159/47 98/160/47 99/158/47 61/157/47
f 57/161/48 97/162/48 98/160/48 59/159/48
f 55/163/49 96/164/49 97/162/49 57/161/49
f 53/165/50 95/166/50 96/164/50 55/163/50
f 51/167/51 94/168/51 95/166/51 53/165/51
f 49/169/52 93/170/52 94/168/52 51/167/52
f 47/171/53 92/172/53 93/170/53 49/169/53
f 45/173/54 91/174/54 92/172/54 47/171/54
f 43/175/55 90/176/55 91/174/55 45/173/55
f 41/177/56 89/178/56 90/176/56 43/175/56
f 39/179/57 88/180/57 89/178/57 41/177/57
f 37/181/58 87/182/58 88/180/58 39/179/58
f 35/183/59 86/184/59 87/182/59 37/181/59
f 33/185/60 85/186/60 86/184/60 35/183/60
f 31/187/61 84/188/61 85/186/61 33/185/61
f 29/189/62 83/190/62 84/188/62 31/187/62
f 27/191/63 82/192/63 83/190/63 29/189/63
f 25/193/64 81/194/64 82/192/64 27/191/64
f 23/195/65 80/196/65 81/194/65 25/193/65
f 21/197/66 79/198/66 80/196/66 23/195/66
f 19/199/67 78/200/67 79/198/67 21/197/67
f 17/201/68 77/202/68 78/200/68 19/199/68
f 15/203/69 76/204/69 77/202/69 17/201/69
f 13/205/70 75/206/70 76/204/70 15/203/70
f 11/207/71 74/208/71 75/206/71 13/205/71
f 9/209/72 73/210/72 74/208/72 11/207/72
f 104/146/39 136/110/39 105/112/39 73/147/39
f 103/150/38 135/76/38 136/110/38 104/146/38
f 102/152/36 134/74/36 135/76/36 103/150/36
f 101/154/35 133/72/35 134/74/35 102/152/35
f 100/156/34 132/70/34 133/72/34 101/154/34
f 99/158/33 131/68/33 132/70/33 100/156/33
f 98/160/32 130/66/32 131/68/32 99/158/32
f 97/162/31 129/64/31 130/66/31 98/160/31
f 96/164/30 128/62/30 129/64/30 97/162/30
f 95/166/29 127/60/29 128/62/29 96/164/29
f 94/168/28 126/58/28 127/60/28 95/166/28
f 93/170/27 125/56/27 126/58/27 94/168/27
f 92/172/26 124/54/26 125/56/26 93/170/26
f 91/174/25 123/52/25 124/54/25 92/172/25
f 90/176/24 122/50/24 123/52/24 91/174/24
f 89/178/23 121/48/23 122/50/23 90/176/23
f 88/180/22 120/46/22 121/48/22 89/178/22
f 87/182/21 119/44/21 120/46/21 88/180/21
f 86/184/20 118/42/20 119/44/20 87/182/20
f 85/186/19 117/40/19 118/42/19 86/184/19
f 84/188/18 116/38/18 117/40/18 85/186/18
f 83/190/17 115/36/17 116/38/17 84/188/17
f 82/192/16 114/34/16 115/36/16 83/190/16
f 81/194/15 113/32/15 114/34/15 82/192/15
f 80/196/14 112/30/14 113/32/14 81/194/14
f 79/198/13 111/28/13 112/30/13 80/196/13
f 78/200/12 110/26/12 111/28/12 79/198/12
f 77/202/11 109/24/11 110/26/11 78/200/11
f 76/204/10 108/22/10 109/24/10 77/202/10
f 75/206/9 107/20/9 108/22/9 76/204/9
f 74/208/8 106/18/8 107/20/8 75/206/8
f 73/210/7 105/15/7 106/18/7 74/208/7
o Cylinder.001
v 0.713745 0.443501 2.172226
v 0.713745 5.443501 2.172226
v 0.743009 0.443501 2.175108
v 0.743009 5.443501 2.175108
v 0.771148 0.443501 2.183644
v 0.771148 5.443501 2.183644
v 0.797081 0.443501 2.197506
v 0.797081 5.443501 2.197506
v 0.819811 0.443501 2.216160
v 0.819811 5.443501 2.216160
v 0.838466 0.443501 2.238890
v 0.838466 5.443501 2.238890
v 0.852327 0.443501 2.264823
v 0.852327 5.443501 2.264823
v 0.860863 0.443501 2.292963
v 0.860863 5.443501 2.292963
v 0.863745 0.443501 2.322226
v 0.863745 5.443501 2.322226
v 0.860863 0.443501 2.351490
v 0.860863 5.443501 2.351490
v 0.852327 0.443501 2.379629
v 0.852327 5.443501 2.379629
v 0.838466 0.443501 2.405562
v 0.838466 5.443501 2.405562
v 0.819811 0.443501 2.428292
v 0.819811 5.443501 2.428292
v 0.797081 0.443501 2.446946
v 0.797081 5.443501 2.446946
v 0.771148 0.443501 2.460808
v 0.771148 5.443501 2.460808
v 0.743009 0.443501 2.469344
v 0.743009 5.443501 2.469344
v 0.713745 0.443501 2.472226
v 0.713745 5.443501 2.472226
v 0.684482 0.443501 2.469344
v 0.684482 5.443501 2.469344
v 0.656343 0.443501 2.460808
v 0.656343 5.443501 2.460808
v 0.630410 0.443501 2.446946
v 0.630410 5.443501 2.446946
v 0.607679 0.443501 2.428292
v 0.607679 5.443501 2.428292
v 0.589025 0.443501 2.405562
v 0.589025 5.443501 2.405562
v 0.575163 0.443501 2.379629
v 0.575163 5.443501 2.379629
v 0.566627 0.443501 2.351490
v 0.566627 5.443501 2.351490
v 0.563745 0.443501 2.322226
v 0.563745 5.443501 2.322226
v 0.566627 0.443501 2.292963
v 0.566627 5.443501 2.292963
v 0.575163 0.443501 2.264823
v 0.575163 5.443501 2.264823
v 0.589025 0.443501 2.238890
v 0.589025 5.443501 2.238890
v 0.607679 0.443501 2.216160
v 0.607679 5.443501 2.216160
v 0.630410 0.443501 2.197506
v 0.630410 5.443501 2.197506
v 0.656343 0.443501 2.183644
v 0.656343 5.443501 2.183644
v 0.684482 0.443501 2.175108
v 0.684482 5.443501 2.175108
vn 0.0980 -0.0000 -0.9952
vn 0.2903 -0.0000 -0.9569
vn 0.4714 -0.0000 -0.8819
vn 0.6344 -0.0000 -0.7730
vn 0.7730 -0.0000 -0.6344
vn 0.8819 -0.0000 -0.4714
vn 0.9569 -0.0000 -0.2903
vn 0.9952 -0.0000 -0.0980
vn 0.9952 -0.0000 0.0980
vn 0.9569 -0.0000 0.2903
vn 0.8819 -0.0000 0.4714
vn 0.7730 -0.0000 0.6344
vn 0.6344 -0.0000 0.7730
vn 0.4714 -0.0000 0.8819
vn 0.2903 -0.0000 0.9569
vn 0.0980 -0.0000 0.9952
vn -0.0980 -0.0000 0.9952
vn -0.2903 -0.0000 0.9569
vn -0.4714 -0.0000 0.8819
vn -0.6344 -0.0000 0.7730
vn -0.7730 -0.0000 0.6344
vn -0.8819 -0.0000 0.4714
vn -0.9569 -0.0000 0.2903
vn -0.9952 -0.0000 0.0980
vn -0.9952 -0.0000 -0.0980
vn -0.9569 -0.0000 -0.2903
vn -0.8819 -0.0000 -0.4714
vn -0.7730 -0.0000 -0.6344
vn -0.6344 -0.0000 -0.7730
vn -0.4714 -0.0000 -0.8819
vn -0.0000 1.0000 -0.0000
vn -0.2903 -0.0000 -0.9569
vn -0.0980 -0.0000 -0.9952
vn -0.0000 -1.0000 -0.0000
vt 1.000000 0.500000
vt 1.000000 1.000000
vt 0.968750 1.000000
vt 0.968750 0.500000
vt 0.937500 1.000000
vt 0.937500 0.500000
vt 0.906250 1.000000
vt 0.906250 0.500000
vt 0.875000 1.000000
vt 0.875000 0.500000
vt 0.843750 1.000000
vt 0.843750 0.500000
vt 0.812500 1.000000
vt 0.812500 0.500000
vt 0.781250 1.000000
vt 0.781250 0.500000
vt 0.750000 1.000000
vt 0.750000 0.500000
vt 0.718750 1.000000
vt 0.718750 0.500000
vt 0.687500 1.000000
vt 0.687500 0.500000
vt 0.656250 1.000000
vt 0.656250 0.500000
vt 0.625000 1.000000
vt 0.625000 0.500000
vt 0.593750 1.000000
vt 0.593750 0.500000
vt 0.562500 1.000000
vt 0.562500 0.500000
vt 0.531250 1.000000
vt 0.531250 0.500000
vt 0.500000 1.000000
vt 0.500000 0.500000
vt 0.468750 1.000000
vt 0.468750 0.500000
vt 0.437500 1.000000
vt 0.437500 0.500000
vt 0.406250 1.000000
vt 0.406250 0.500000
vt 0.375000 1.000000
vt 0.375000 0.500000
vt 0.343750 1.000000
vt 0.343750 0.500000
vt 0.312500 1.000000
vt 0.312500 0.500000
vt 0.281250 1.000000
vt 0.281250 0.500000
vt 0.250000 1.000000
vt 0.250000 0.500000
vt 0.218750 1.000000
vt 0.218750 0.500000
vt 0.187500 1.000000
vt 0.187500 0.500000
vt 0.156250 1.000000
vt 0.156250 0.500000
vt 0.125000 1.000000
vt 0.125000 0.500000
vt 0.093750 1.000000
vt 0.093750 0.500000
vt 0.062500 1.000000
vt 0.062500 0.500000
vt 0.296822 0.485388
vt 0.250000 0.490000
vt 0.203178 0.485388
vt 0.158156 0.471731
vt 0.116663 0.449553
vt 0.080294 0.419706
vt 0.050447 0.383337
vt 0.028269 0.341844
vt 0.014612 0.296822
vt 0.010000 0.250000
vt 0.014612 0.203178
vt 0.028269 0.158156
vt 0.050447 0.116663
vt 0.080294 0.080294
vt 0.116663 0.050447
vt 0.158156 0.028269
vt 0.203178 0.014612
vt 0.250000 0.010000
vt 0.296822 0.014612
vt 0.341844 0.028269
vt 0.383337 0.050447
vt 0.419706 0.080294
vt 0.449553 0.116663
vt 0.471731 0.158156
vt 0.485388 0.203178
vt 0.490000 0.250000
vt 0.485388 0.296822
vt 0.471731 0.341844
vt 0.449553 0.383337
vt 0.419706 0.419706
vt 0.383337 0.449553
vt 0.341844 0.471731
vt 0.031250 1.000000
vt 0.031250 0.500000
vt 0.000000 1.000000
vt 0.000000 0.500000
vt 0.750000 0.490000
vt 0.796822 0.485388
vt 0.841844 0.471731
vt 0.883337 0.449553
vt 0.919706 0.419706
vt 0.949553 0.383337
vt 0.971731 0.341844
vt 0.985388 0.296822
vt 0.990000 0.250000
vt 0.985388 0.203178
vt 0.971731 0.158156
vt 0.949553 0.116663
vt 0.919706 0.080294
vt 0.883337 0.050447
vt 0.841844 0.028269
vt 0.796822 0.014612
vt 0.750000 0.010000
vt 0.703178 0.014612
vt 0.658156 0.028269
vt 0.616663 0.050447
vt 0.580294 0.080294
vt 0.550447 0.116663
vt 0.528269 0.158156
vt 0.514612 0.203178
vt 0.510000 0.250000
vt 0.514612 0.296822
vt 0.528269 0.341844
vt 0.550447 0.383337
vt 0.580294 0.419706
vt 0.616663 0.449553
vt 0.658156 0.471731
vt 0.703178 0.485388
s 0
f 137/211/73 138/212/73 140/213/73 139/214/73
f 139/214/74 140/213/74 142/215/74 141/216/74
f 141/216/75 142/215/75 144/217/75 143/218/75
f 143/218/76 144/217/76 146/219/76 145/220/76
f 145/220/77 146/219/77 148/221/77 147/222/77
f 147/222/78 148/221/78 150/223/78 149/224/78
f 149/224/79 150/223/79 152/225/79 151/226/79
f 151/226/80 152/225/80 154/227/80 153/228/80
f 153/228/81 154/227/81 156/229/81 155/230/81
f 155/230/82 156/229/82 158/231/82 157/232/82
f 157/232/83 158/231/83 160/233/83 159/234/83
f 159/234/84 160/233/84 162/235/84 161/236/84
f 161/236/85 162/235/85 164/237/85 163/238/85
f 163/238/86 164/237/86 166/239/86 165/240/86
f 165/240/87 166/239/87 168/241/87 167/242/87
f 167/242/88 168/241/88 170/243/88 169/244/88
f 169/244/89 170/243/89 172/245/89 171/246/89
f 171/246/90 172/245/90 174/247/90 173/248/90
f 173/248/91 174/247/91 176/249/91 175/250/91
f 175/250/92 176/249/92 178/251/92 177/252/92
f 177/252/93 178/251/93 180/253/93 179/254/93
f 179/254/94 180/253/94 182/255/94 181/256/94
f 181/256/95 182/255/95 184/257/95 183/258/95
f 183/258/96 184/257/96 186/259/96 185/260/96
f 185/260/97 186/259/97 188/261/97 187/262/97
f 187/262/98 188/261/98 190/263/98 189/264/98
f 189/264/99 190/263/99 192/265/99 191/266/99
f 191/266/100 192/265/100 194/267/100 193/268/100
f 193/268/101 194/267/101 196/269/101 195/270/101
f 195/270/102 196/269/102 198/271/102 197/272/102
f 140/273/103 138/274/103 200/275/103 198/276/103 196/277/103 194/278/103 192/279/103 190/280/103 188/281/103 186/282/103 184/283/103 182/284/103 180/285/103 178/286/103 176/287/103 174/288/103 172/289/103 170/290/103 168/291/103 166/292/103 164/293/103 162/294/103 160/295/103 158/296/103 156/297/103 154/298/103 152/299/103 150/300/103 148/301/103 146/302/103 144/303/103 142/304/103
f 197/272/104 198/271/104 200/305/104 199/306/104
f 199/306/105 200/305/105 138/307/105 137/308/105
f 137/309/106 139/310/106 141/311/106 143/312/106 145/313/106 147/314/106 149/315/106 151/316/106 153/317/106 155/318/106 157/319/106 159/320/106 161/321/106 163/322/106 165/323/106 167/324/106 169/325/106 171/326/106 173/327/106 175/328/106 177/329/106 179/330/106 181/331/106 183/332/106 185/333/106 187/334/106 189/335/106 191/336/106 193/337/106 195/338/106 197/339/106 199/340/106
